<svg width="16" height="16" viewBox="0 0 16 16" fill="none" xmlns="http://www.w3.org/2000/svg">
<path d="M6.50001 7.99984C6.50001 7.17141 7.17158 6.49984 8.00001 6.49984C8.82844 6.49984 9.50001 7.17141 9.50001 7.99984C9.50001 8.82826 8.82844 9.49984 8.00001 9.49984C7.17158 9.49984 6.50001 8.82826 6.50001 7.99984Z" fill="#238F53"/>
<path fill-rule="evenodd" clip-rule="evenodd" d="M4.2345 3.73031C5.28218 2.8725 6.57271 2.1665 8.00001 2.1665C9.42732 2.1665 10.7179 2.8725 11.7655 3.73031C12.8189 4.59281 13.6803 5.65227 14.2591 6.45851L14.3068 6.5249C14.6553 7.00906 14.9421 7.40761 14.9421 7.99984C14.9421 8.59207 14.6553 8.99061 14.3068 9.47478L14.2591 9.54116C13.6803 10.3474 12.8189 11.4069 11.7655 12.2694C10.7179 13.1272 9.42732 13.8332 8.00001 13.8332C6.57271 13.8332 5.28218 13.1272 4.2345 12.2694C3.1811 11.4069 2.31976 10.3474 1.74095 9.54116L1.69322 9.47478C1.34478 8.99061 1.05795 8.59207 1.05795 7.99984C1.05795 7.40761 1.34478 7.00906 1.69322 6.5249L1.74095 6.45851C2.31976 5.65227 3.1811 4.59281 4.2345 3.73031ZM8.00001 5.49984C6.6193 5.49984 5.50001 6.61912 5.50001 7.99984C5.50001 9.38055 6.6193 10.4998 8.00001 10.4998C9.38072 10.4998 10.5 9.38055 10.5 7.99984C10.5 6.61912 9.38072 5.49984 8.00001 5.49984Z" fill="#238F53"/>
</svg>
